# xmcd
#
# Track frame offsets:
#	182
#	15382
#	41777
#	57137
#
# Disc length: 1042 seconds
#
# Revision: 0
# Processed by: cddbd v1.5.2PL0 Copyright (c) Steve Scherf et al.
# Submitted via: audiograbber 1.83.01
#
DISCID=28041004
DTITLE=Construction - Oh Girl (Maxi CD)
DYEAR=1991
DGENRE=Dance
TTITLE0=Oh Girl (Radio Mix)
TTITLE1=Oh Girl (Club Mix)
TTITLE2=Oh Girl (Instrumental)
TTITLE3=Get On (Extended Mix)
EXTD=
EXTT0=
EXTT1=
EXTT2=
EXTT3=
PLAYORDER=
